<svg width="274" height="267" viewBox="0 0 274 267" fill="none" xmlns="http://www.w3.org/2000/svg">
<g filter="url(#filter0_dd)">
<circle cx="139" cy="132" r="100" fill="#FAFAFA" fill-opacity="0.85"/>
</g>
<g clip-path="url(#clip0)">
<path d="M167.25 114H171.875C176.782 114 181.487 115.949 184.956 119.419C188.426 122.888 190.375 127.593 190.375 132.5C190.375 137.407 188.426 142.112 184.956 145.581C181.487 149.051 176.782 151 171.875 151H167.25" stroke="black" stroke-width="10" stroke-linecap="round" stroke-linejoin="round"/>
<path d="M93.25 114H167.25V155.625C167.25 160.532 165.301 165.237 161.831 168.706C158.362 172.176 153.657 174.125 148.75 174.125H111.75C106.843 174.125 102.138 172.176 98.6685 168.706C95.1991 165.237 93.25 160.532 93.25 155.625V114Z" stroke="black" stroke-width="10" stroke-linecap="round" stroke-linejoin="round"/>
<path d="M111.75 81.625V95.5" stroke="black" stroke-width="10" stroke-linecap="round" stroke-linejoin="round"/>
<path d="M130.25 81.625V95.5" stroke="black" stroke-width="10" stroke-linecap="round" stroke-linejoin="round"/>
<path d="M148.75 81.625V95.5" stroke="black" stroke-width="10" stroke-linecap="round" stroke-linejoin="round"/>
</g>
<defs>
<filter id="filter0_dd" x="0" y="0" width="274" height="267" filterUnits="userSpaceOnUse" color-interpolation-filters="sRGB">
<feFlood flood-opacity="0" result="BackgroundImageFix"/>
<feColorMatrix in="SourceAlpha" type="matrix" values="0 0 0 0 0 0 0 0 0 0 0 0 0 0 0 0 0 0 127 0"/>
<feMorphology radius="10" operator="dilate" in="SourceAlpha" result="effect1_dropShadow"/>
<feOffset dx="11" dy="11"/>
<feGaussianBlur stdDeviation="7"/>
<feColorMatrix type="matrix" values="0 0 0 0 0 0 0 0 0 0 0 0 0 0 0 0 0 0 0.25 0"/>
<feBlend mode="normal" in2="BackgroundImageFix" result="effect1_dropShadow"/>
<feColorMatrix in="SourceAlpha" type="matrix" values="0 0 0 0 0 0 0 0 0 0 0 0 0 0 0 0 0 0 127 0"/>
<feMorphology radius="10" operator="dilate" in="SourceAlpha" result="effect2_dropShadow"/>
<feOffset dx="-13" dy="-6"/>
<feGaussianBlur stdDeviation="8"/>
<feColorMatrix type="matrix" values="0 0 0 0 1 0 0 0 0 1 0 0 0 0 1 0 0 0 1 0"/>
<feBlend mode="normal" in2="effect1_dropShadow" result="effect2_dropShadow"/>
<feBlend mode="normal" in="SourceGraphic" in2="effect2_dropShadow" result="shape"/>
</filter>
<clipPath id="clip0">
<rect width="111" height="111" fill="white" transform="translate(84 77)"/>
</clipPath>
</defs>
</svg>
