<svg xmlns="http://www.w3.org/2000/svg" xmlns:xlink="http://www.w3.org/1999/xlink" version="1.1" x="0px" y="0px" viewBox="0 0 32 40" style="enable-background:new 0 0 32 32;" xml:space="preserve"><title>hamburger</title><path d="M29.2,17c0.5-0.5,0.8-1.3,0.8-2c0-6.1-4.9-11-11-11h-6C6.9,4,2,8.9,2,15c0,0.7,0.3,1.5,0.8,2c-1.1,1.1-1.1,2.9,0,4  C2.3,21.5,2,22.3,2,23c0,2.8,2.2,5,5,5h18c2.8,0,5-2.2,5-5c0-0.7-0.3-1.5-0.8-2C30.3,19.9,30.3,18.1,29.2,17z M4,19c0-0.6,0.4-1,1-1  h22c0.6,0,1,0.4,1,1s-0.4,1-1,1H5C4.4,20,4,19.6,4,19z M13,6h6c5,0,9,4,9,9c0,0.6-0.4,1-1,1H5c-0.6,0-1-0.4-1-1C4,10,8,6,13,6z   M25,26H7c-1.7,0-3-1.3-3-3c0-0.6,0.4-1,1-1h22c0.6,0,1,0.4,1,1C28,24.7,26.7,26,25,26z M12,8c0-0.6,0.4-1,1-1h1c0.6,0,1,0.4,1,1  s-0.4,1-1,1h-1C12.4,9,12,8.6,12,8z M18,8c0-0.6,0.4-1,1-1h1c0.6,0,1,0.4,1,1s-0.4,1-1,1h-1C18.4,9,18,8.6,18,8z M15,10  c0-0.6,0.4-1,1-1h1c0.6,0,1,0.4,1,1s-0.4,1-1,1h-1C15.4,11,15,10.6,15,10z"/><text x="0" y="47" fill="#000000" font-size="5px" font-weight="bold" font-family="'Helvetica Neue', Helvetica, Arial-Unicode, Arial, Sans-serif">Created by MHD AZMI DWIPRANATA</text><text x="0" y="52" fill="#000000" font-size="5px" font-weight="bold" font-family="'Helvetica Neue', Helvetica, Arial-Unicode, Arial, Sans-serif">from the Noun Project</text></svg>