<svg width="274" height="267" viewBox="0 0 274 267" fill="none" xmlns="http://www.w3.org/2000/svg">
<g filter="url(#filter0_dd)">
<circle cx="139" cy="132" r="100" fill="#FAFAFA" fill-opacity="0.85"/>
</g>
<path d="M111.75 86.25L97.875 104.75V169.5C97.875 171.953 98.8496 174.306 100.584 176.041C102.319 177.775 104.672 178.75 107.125 178.75H171.875C174.328 178.75 176.681 177.775 178.416 176.041C180.15 174.306 181.125 171.953 181.125 169.5V104.75L167.25 86.25H111.75Z" stroke="black" stroke-width="10" stroke-linecap="round" stroke-linejoin="round"/>
<path d="M97.875 104.75H181.125" stroke="black" stroke-width="10" stroke-linecap="round" stroke-linejoin="round"/>
<path d="M158 123.25C158 128.157 156.051 132.862 152.581 136.331C149.112 139.801 144.407 141.75 139.5 141.75C134.593 141.75 129.888 139.801 126.419 136.331C122.949 132.862 121 128.157 121 123.25" stroke="black" stroke-width="10" stroke-linecap="round" stroke-linejoin="round"/>
<defs>
<filter id="filter0_dd" x="0" y="0" width="274" height="267" filterUnits="userSpaceOnUse" color-interpolation-filters="sRGB">
<feFlood flood-opacity="0" result="BackgroundImageFix"/>
<feColorMatrix in="SourceAlpha" type="matrix" values="0 0 0 0 0 0 0 0 0 0 0 0 0 0 0 0 0 0 127 0"/>
<feMorphology radius="10" operator="dilate" in="SourceAlpha" result="effect1_dropShadow"/>
<feOffset dx="11" dy="11"/>
<feGaussianBlur stdDeviation="7"/>
<feColorMatrix type="matrix" values="0 0 0 0 0 0 0 0 0 0 0 0 0 0 0 0 0 0 0.25 0"/>
<feBlend mode="normal" in2="BackgroundImageFix" result="effect1_dropShadow"/>
<feColorMatrix in="SourceAlpha" type="matrix" values="0 0 0 0 0 0 0 0 0 0 0 0 0 0 0 0 0 0 127 0"/>
<feMorphology radius="10" operator="dilate" in="SourceAlpha" result="effect2_dropShadow"/>
<feOffset dx="-13" dy="-6"/>
<feGaussianBlur stdDeviation="8"/>
<feColorMatrix type="matrix" values="0 0 0 0 1 0 0 0 0 1 0 0 0 0 1 0 0 0 1 0"/>
<feBlend mode="normal" in2="effect1_dropShadow" result="effect2_dropShadow"/>
<feBlend mode="normal" in="SourceGraphic" in2="effect2_dropShadow" result="shape"/>
</filter>
</defs>
</svg>
